<svg height="512" viewBox="0 0 60 58" width="512" xmlns="http://www.w3.org/2000/svg"><g id="Page-1" fill="none" fill-rule="evenodd"><g id="031---Brain-Research" fill-rule="nonzero"><path id="Shape" d="m57.68 44.57-18.74 11.41c-1.0968305.667384-2.3560847 1.020252-3.64 1.02h-26.8l-.24-.05c.1564476-.2922896.23885274-.6184766.24-.95v-21h4.3c2.0715011.0028959 4.0808416.7079276 5.7 2s3.6284989 1.9971041 5.7 2h5.23c1.7582968-.0025667 3.3881205.9206201 4.29 2.43l.09.15c.8396049 1.4277078.6138948 3.2415964-.55 4.42h2.35c.4319935.0002223.8610725-.0707278 1.27-.21l18.51-6.17c1.120338-.3678364 2.3505552.0181141 3.06.96v.01c.4649441.6171961.6465512 1.4025179.4997758 2.1611752s-.608183 1.4195768-1.2697758 1.8188248z" fill="#fdd7ad"/><path id="Shape" d="m34.27 44c-.1123578.7580836-.4666159 1.4595847-1.01 2h-6.54c-1.5797578-.0009418-3.1245213.4652706-4.44 1.34l-.72.49c-.1646841.1130289-.3602737.1724043-.56.17-.3321039-.0015914-.6422908-.1660278-.83-.44-.1488534-.2200282-.2040417-.4902421-.1533875-.7510177.0506543-.2607756.2029878-.4906795.4233875-.6389823l.73-.49c1.6440609-1.0946059 3.5748804-1.6790702 5.55-1.68z" fill="#f9c795"/><path id="Shape" d="m53 20.61c.0049607 1.6387193-.6052757 3.2196242-1.71 4.43v.01c.0013232.0109925-.002346.0219999-.01.03-.1979766 1.075613-.5911187 2.1059164-1.16 3.04-.856886 1.445959-2.0909355 2.6316145-3.57 3.43 0 .0055228.0044772.01.01.01.3994949.5358985.7413841 1.1124175 1.02 1.72.2418929.5155808.449022 1.0467669.62 1.59.0861282.2579269.1300269.5280729.13.8-.0006282 1.041159-.6223063 1.9815455-1.58 2.39-1.0805968.440431-2.3220939.1239709-3.06-.78-.8217568-.9592619-1.8955933-1.6693795-3.1-2.05-2.65-.89-4.04-1.77-4.74-2.95-.3469173-.5967786-.5585673-1.2624519-.62-1.95h-.12c-1.3276464-.0079095-2.6426381-.2587069-3.88-.74-1.535037 1.7924287-3.9124124 2.6255526-6.2305269 2.1834167s-4.2219424-2.0918174-4.9894731-4.3234167h-.01c-.6275147.2384802-1.2827432.3964071-1.95.47-.3739228.0568277-.7518005.0835801-1.13.08-4.9298422-.0104785-8.92056264-4.0101467-8.92-8.94.00570299-1.9231657.62587001-3.7941781 1.77-5.34 0-.01-.01-.01-.01-.02-.1368585-.4060854-.20775738-.8314787-.21-1.26.0025088-1.8445662 1.3023514-3.43279826 3.11-3.8.01-.01.01-.01.02-.01-.0164266-.15275317-.0231068-.30639755-.02-.46-.0024267-.52610414.078579-1.04926583.24-1.55.6641899-2.09096492 2.6060808-3.51097258 4.8-3.51.7596641-.00206069 1.5094033.17253611 2.19.51 1.1139568-1.89020896 3.0138121-3.1842183 5.1806525-3.52859114 2.1668403-.34437284 4.3742629.29687268 6.0193475 1.74859114.7625402-1.23936904 2.1564239-1.94556915 3.6067778-1.82734525 1.4503538.11822389 2.7114663 1.04084291 3.2632222 2.38734525.3550553-.04355553.7122963-.06692644 1.07-.07 4.8484236.0065765 8.8827287 3.72787523 9.28 8.56h.03c1.3814945.0071732 2.6561021.7446791 3.3508004 1.9388201.6946982 1.194141.7058054 2.6666954.0291996 3.8711799.8347749 1.1324235 1.2835047 2.5031525 1.28 3.91z" fill="#fb7b76"/><path id="Shape" d="m5 6c-.26519481-.00005664-.51950727-.10545063-.707-.293l-2-2c-.37897221-.39237889-.37355237-1.01608478.01218142-1.40181858.3857338-.38573379 1.00943969-.39115363 1.40181858-.01218142l2 2c.28590792.28599425.37142191.71603662.21667798 1.08965456s-.51928208.61725909-.92367798.61734544z" fill="#f29c1f"/><path id="Shape" d="m55 6c-.4043959-.00008635-.7689341-.2437275-.923678-.61734544s-.0692299-.80366031.216678-1.08965456l2-2c.2510745-.25995658.6228779-.3642126.9725073-.27269716.3496295.09151544.6226744.3645604.7141899.71418984.0915154.34962943-.0127406.72143285-.2726972.97250732l-2 2c-.1874927.18754937-.4418052.29294336-.707.293z" fill="#f29c1f"/><path id="Shape" d="m3 30c-.4043959-.0000863-.76893405-.2437275-.92367798-.6173454-.15474393-.373618-.06922994-.8036603.21667798-1.0896546l2-2c.39237889-.3789722 1.01608478-.3735524 1.40181858.0121814.38573379.3857338.39115363 1.0094397.01218142 1.4018186l-2 2c-.18749273.1875494-.44180519.2929434-.707.293z" fill="#f29c1f"/><path id="Shape" d="m57 30c-.2651948-.0000566-.5195073-.1054506-.707-.293l-2-2c-.3789722-.3923789-.3735524-1.0160848.0121814-1.4018186s1.0094397-.3911536 1.4018186-.0121814l2 2c.2859079.2859943.3714219.7160366.216678 1.0896546-.1547439.3736179-.5192821.6172591-.923678.6173454z" fill="#f29c1f"/><path id="Shape" d="m3 17h-2c-.55228475 0-1-.4477153-1-1s.44771525-1 1-1h2c.55228475 0 1 .4477153 1 1s-.44771525 1-1 1z" fill="#f29c1f"/><path id="Shape" d="m59 17h-2c-.5522847 0-1-.4477153-1-1s.4477153-1 1-1h2c.5522847 0 1 .4477153 1 1s-.4477153 1-1 1z" fill="#f29c1f"/><g fill="#df4d60"><path id="Shape" d="m20.55 22.95c-.524978.8687959-.8016767 1.8649111-.8 2.88-.0024673.5497936.0819053 1.0965277.25 1.62-.6275147.2384802-1.2827432.3964071-1.95.47-.2009769-.6783986-.3020384-1.3824604-.3-2.09 0-.06.01-.13.01-.19-2.1781037-.1117066-3.8875432-1.909035-3.89-4.09-.0001068-.5556115.4444953-1.0091057 1-1.02.2639714-.0015955.5177363.1018756.7053313.2875946.187595.1857191.2936112.4384313.2946687.7024054v.03c.0107179.5710563.249165 1.1141578.6623144 1.5085277.4131495.39437.9667484.6073124 1.5376856.5914723.1861-.6087279.4446169-1.1929089.77-1.74.2850903-.4713036.8976306-.6233209 1.37-.34.4688279.291673.61967.9039145.34 1.38z"/><path id="Shape" d="m16.76 9.97c-.1680609.132079-.3762659.202657-.59.2-.3200539.0008303-.6211686-.1515858-.81-.41-.5388698-.72348817-1.3878826-1.14984828-2.29-1.15-.13 0-.26.01-.39.02-.0164266-.15275317-.0231068-.30639755-.02-.46-.0024267-.52610414.078579-1.04926583.24-1.55.0562639-.00831073.1131497-.01165695.17-.01 1.5399936-.00377827 2.9891637.72823844 3.9 1.97.1594174.21112851.2270046.47760213.1874844.73918829s-.1828113.49620047-.3974844.65081171z"/><path id="Shape" d="m9.77 13.72-.01-.02c.01.01.01.01.01.02z"/><path id="Shape" d="m11.43 16.77c-.1825417.2998614-.5089527.4820443-.86.48-.1829199.0021219-.3628711-.0463265-.52-.14-.55795379-.3386753-1.0438431-.7837907-1.43-1.31.28700596-.7420723.67390664-1.4415215 1.15-2.079.02790694.0473866.05134141.0972685.07.149.2276264.6389649.6692611 1.1795258 1.25 1.53.4713036.2850903.6233209.8976306.34 1.37z"/><path id="Shape" d="m51.28 25.08c-.1979766 1.075613-.5911187 2.1059164-1.16 3.04-.8494573.3238548-1.7509018.4899103-2.66.49-1.8442354.0000218-3.6253038-.6718782-5.01-1.89-1.9897608.8725075-4.3132843.0155426-5.26-1.94-.1723181-.3213297-.1560848-.7109796.0423636-1.0168628s.5476534-.4795102.9113146-.4531117.6841298.2486379.8363218.5799745c.2827518.5356595.7793495.9263277 1.3665192 1.0750266.5871698.1486988 1.2098544.0414852 1.7134808-.2950266.5638159-.3957036.8996141-1.0411825.9-1.73.0032838-.3264613-.0721813-.6489031-.22-.94-.2255152-.4909683-.0202733-1.0722858.4635108-1.3128266.4837842-.2405407 1.0711515-.0533137 1.3264892.4228266.2866712.5671801.4340749 1.1945025.43 1.83-.0011025.9181915-.3110593 1.8093174-.88 2.53.2616966.2012909.5431372.375516.84.52 2.104279 1.0405653 4.6319498.6789017 6.36-.91z"/><path id="Shape" d="m35.986 19.787c1.5671204-1.078075 2.645269-2.7312362 3-4.6.0744538-.3538613-.0479307-.7203513-.3200693-.9584726-.2721387-.2381213-.6516311-.3107736-.9924777-.1900059-.3408465.1207677-.5899418.4161394-.651453.7724785-.3723423 1.9645378-1.825176 3.5487223-3.7502305 4.0892893s-3.9901865-.0557514-5.3307695-1.5392893c-.3697546-.4106237-1.0023763-.4437546-1.413-.074-.4106237.3697547-.4437546 1.0023763-.074 1.413 1.1097214 1.2261399 2.6042267 2.0374126 4.237 2.3-.7082808 1.2413486-2.0298121 2.0054603-3.459 2-.5522847 0-1 .4477153-1 1s.4477153 1 1 1c2.5338765.0080662 4.7947721-1.5897725 5.633-3.981 1.1220234-.1622277 2.1907003-.5840828 3.121-1.232z"/><path id="Shape" d="m47.58 33.28c-.884954.4336909-1.8280892.7368415-2.8.9-.06 0-.11.01-.17.01-.5289529.0107934-.9747835-.3922873-1.0171844-.9196485s.3333019-.9964948.8571844-1.0703515c.7296699-.114188 1.4398457-.3295968 2.11-.64.3994949.5358985.7413841 1.1124175 1.02 1.72z"/><path id="Shape" d="m38.29 31.82c-.7943274.2410292-1.6124372.3952631-2.44.46-.3469173-.5967786-.5585673-1.2624519-.62-1.95h-.07c.1004214.0036469.2009514-.0030551.3-.02.7627002-.0479266 1.5175145-.1821158 2.25-.4.3486659-.1300879.7407289-.0558012 1.0176387.1928185.2769097.2486198.3928558.6304422.3009497.9910584-.0919062.3606162-.3764602.6403678-.7385884.7261231z"/><path id="Shape" d="m27.5 10c0-.55228475-.4477153-1-1-1-3.0361953.0033068-5.4966932 2.4638047-5.5 5.5 0 .5522847.4477153 1 1 1s1-.4477153 1-1c0-1.9329966 1.5670034-3.5 3.5-3.5.5522847 0 1-.4477153 1-1z"/></g><path id="Shape" d="m10 35v21c0 1.1045695-.8954305 2-2 2h-5c-1.10320187-.0032948-1.9967052-.8967981-2-2v-21c.0032948-1.1032019.89679813-1.9967052 2-2h5c1.10320187.0032948 1.9967052.8967981 2 2z" fill="#3b97d3"/></g></g></svg>