<?xml version="1.0" encoding="iso-8859-1"?>
<!-- Generator: Adobe Illustrator 18.0.0, SVG Export Plug-In . SVG Version: 6.00 Build 0)  -->
<svg version="1.1"  xmlns="http://www.w3.org/2000/svg" xmlns:xlink="http://www.w3.org/1999/xlink" x="0px" y="0px"
	 viewBox="0 0 299 299" xml:space="preserve">
<path d="M0,38.667v221.667h299V38.667H0z M274,103.499h-64.167V63.667H274V103.499z M114.166,170.499v-42h70.667v42H114.166z
	 M184.833,195.499v39.834h-70.667v-39.834H184.833z M89.166,170.499H25v-42h64.166V170.499z M114.166,103.499V63.667h70.667v39.833
	H114.166z M209.833,128.499H274v42h-64.167V128.499z M89.166,63.667v39.833H25V63.667H89.166z M25,195.499h64.166v39.834H25V195.499
	z M209.833,235.333v-39.834H274v39.834H209.833z"/>
<g>
</g>
<g>
</g>
<g>
</g>
<g>
</g>
<g>
</g>
<g>
</g>
<g>
</g>
<g>
</g>
<g>
</g>
<g>
</g>
<g>
</g>
<g>
</g>
<g>
</g>
<g>
</g>
<g>
</g>
</svg>
